<svg width="24px" height="24px" viewBox="0 0 24 24" version="1.1" xmlns="http://www.w3.org/2000/svg" xmlns:xlink="http://www.w3.org/1999/xlink">
    <title>logo@3x</title>
    <g id="Page-1" stroke="none" stroke-width="1" fill="none" fill-rule="evenodd">
        <g id="Artboard" transform="translate(-393.000000, -180.000000)" fill="#FFFFFF" fill-rule="nonzero">
            <g id="Group-8-Copy" transform="translate(369.000000, 145.000000)">
                <g id="logo" transform="translate(24.000000, 35.000000)">
                    <path d="M12,0 C15.2053113,0 18.2187711,1.24824742 20.4853113,3.51468866 C22.7517526,5.78122887 24,8.79468866 24,12 C24,15.2053113 22.7517526,18.2187711 20.4853113,20.4853113 C18.2187711,22.7517526 15.2053113,24 12,24 C8.79468866,24 5.78122887,22.7517526 3.51468866,20.4853113 C1.24824742,18.2187711 0,15.2053113 0,12 C0,8.79468866 1.24824742,5.78122887 3.51468866,3.51468866 C5.78122887,1.24824742 8.79468866,0 12,0 Z M6.74724368,14.0946599 C6.61242423,14.1432953 6.42979914,14.2959267 6.19936842,14.5525542 C7.12744621,17.0154677 9.55128903,18.6702054 12.2307692,18.6702054 C14.9102494,18.6702054 17.3340923,17.0154677 18.26217,14.5525542 C18.0557608,14.2981935 17.8820046,14.1455621 17.7409015,14.0946599 C17.5999372,14.0438078 17.3505922,14.0438078 16.9928666,14.0946599 C16.2599102,16.0397179 14.3461697,17.3465564 12.2307692,17.3465564 C10.1153688,17.3465564 8.20162827,16.0397179 7.46867184,14.0946599 C7.1349677,14.041541 6.89449165,14.041541 6.74724368,14.0946599 Z M15.6923077,7.84615385 C14.6743385,7.84615385 13.8461538,8.67433846 13.8461538,9.69230769 C13.8461538,10.7102769 14.6743385,11.5384615 15.6923077,11.5384615 C16.7102769,11.5384615 17.5384615,10.7102769 17.5384615,9.69230769 C17.5384615,8.67433846 16.7102769,7.84615385 15.6923077,7.84615385 Z M8.30769231,7.84615385 C7.28972308,7.84615385 6.46153846,8.67433846 6.46153846,9.69230769 C6.46153846,10.7102769 7.28977582,11.5384615 8.30769231,11.5384615 C9.32566154,11.5384615 10.1538462,10.7102769 10.1538462,9.69230769 C10.1538462,8.67433846 9.32566154,7.84615385 8.30769231,7.84615385 Z" id="Combined-Shape"></path>
                </g>
            </g>
        </g>
    </g>
</svg>